<?xml version="1.0" encoding="utf-8"?>
<svg xmlns="http://www.w3.org/2000/svg" width="408" height="577" viewBox="0 0 408 577" fill="none">
<rect width="408" height="576" transform="translate(0 0.5)" fill="#000E19" style="fill:#000E19;fill:color(display-p3 0.0000 0.0549 0.0980);fill-opacity:1;"/>
<path d="M274.461 410.985C271.764 409.205 269.021 407.5 266.231 405.85L271.412 399.678C271.903 399.094 271.829 398.213 271.236 397.722C270.652 397.231 269.771 397.305 269.28 397.898L263.793 404.432C260.809 402.727 257.769 401.086 254.682 399.557C253.394 398.918 252.087 398.297 250.78 397.694L254.302 391.596C254.682 390.928 254.46 390.085 253.793 389.696C253.125 389.306 252.282 389.538 251.893 390.205L248.232 396.554C243.885 394.654 239.436 392.958 234.894 391.531L237.072 385.543C237.332 384.82 236.961 384.023 236.238 383.764C235.525 383.504 234.718 383.875 234.459 384.598L232.234 390.724C227.739 389.408 223.17 388.342 218.536 387.564L219.574 381.651C219.703 380.891 219.203 380.177 218.443 380.038C217.692 379.908 216.969 380.409 216.83 381.169L215.774 387.137C214.124 386.906 212.465 386.702 210.796 386.544C208.878 386.405 206.95 386.266 205.032 386.183L202.14 386.136C202.038 386.136 201.927 386.136 201.825 386.136V380.149C201.825 379.38 201.204 378.759 200.434 378.759C199.665 378.759 199.044 379.38 199.044 380.149V386.183C197.19 386.266 195.337 386.331 193.483 386.452L187.755 387.091C186.884 387.212 186.022 387.351 185.16 387.49L184.048 381.187C183.918 380.427 183.195 379.927 182.435 380.056C181.675 380.186 181.175 380.909 181.304 381.669L182.417 387.981C177.838 388.861 173.324 390.02 168.894 391.419L166.419 384.616C166.16 383.893 165.354 383.523 164.64 383.782C163.917 384.042 163.546 384.839 163.806 385.562L166.253 392.291C161.804 393.811 157.448 395.562 153.184 397.518L149.004 390.205C148.624 389.538 147.771 389.315 147.104 389.696C146.437 390.076 146.214 390.928 146.594 391.596L150.682 398.677C148.661 399.65 146.659 400.66 144.694 401.717C142.433 402.931 140.218 404.219 138.021 405.535L131.617 397.898C131.125 397.314 130.245 397.231 129.661 397.722C129.077 398.213 128.994 399.094 129.485 399.678L135.611 406.981C125.731 413.089 116.463 420.096 107.732 427.668C106.777 428.493 106.657 429.939 107.472 430.903C108.297 431.885 109.752 432.015 110.735 431.19C122.033 421.709 134.175 413.228 147.178 406.481C160.163 399.733 174.186 395.034 188.534 393.329L193.919 392.856C195.717 392.791 197.515 392.773 199.313 392.726C200.212 392.68 201.111 392.726 202.01 392.763L204.707 392.865C206.505 392.986 208.294 393.153 210.083 393.329C217.229 394.172 224.282 395.794 231.15 398.046C238.018 400.289 244.682 403.181 251.114 406.555C257.546 409.919 263.756 413.738 269.743 417.899L269.771 417.918C269.79 417.936 269.808 417.946 269.836 417.955C271.755 419.225 274.35 418.696 275.62 416.778C276.908 414.841 276.38 412.255 274.461 410.985Z" fill="#D3D7DA" style="fill:#D3D7DA;fill:color(display-p3 0.8293 0.8422 0.8542);fill-opacity:1;"/>
<path d="M131.737 265.036C132.284 265.036 132.822 264.971 133.211 264.832V264.053C132.933 264.128 132.581 264.174 132.154 264.174C129.652 264.174 128.985 262.459 128.985 260.902C128.985 258.984 130.023 258.075 131.311 258.075C132.099 258.075 132.72 258.307 133.22 258.696V257.732C132.887 257.491 132.154 257.167 131.144 257.167C129.216 257.167 127.696 258.502 127.696 260.976C127.706 262.96 128.651 265.036 131.737 265.036Z" fill="#D3D7DA" style="fill:#D3D7DA;fill:color(display-p3 0.8293 0.8422 0.8542);fill-opacity:1;"/>
<path d="M169.923 409.308C169.923 411.282 170.868 413.367 173.955 413.367C174.501 413.367 175.039 413.303 175.428 413.163V412.385C175.15 412.459 174.798 412.505 174.372 412.505C171.869 412.505 171.202 410.791 171.202 409.234C171.202 407.315 172.24 406.407 173.528 406.407C174.316 406.407 174.937 406.639 175.438 407.028V406.045C175.104 405.804 174.372 405.48 173.361 405.48C171.443 405.489 169.923 406.824 169.923 409.308Z" fill="#D3D7DA" style="fill:#D3D7DA;fill:color(display-p3 0.8293 0.8422 0.8542);fill-opacity:1;"/>
<path d="M158.42 264.563H159.644V257.89H161.618V257H156.446V257.89H158.42V264.563Z" fill="#D3D7DA" style="fill:#D3D7DA;fill:color(display-p3 0.8293 0.8422 0.8542);fill-opacity:1;"/>
<path d="M186.968 267.186C187.58 267.186 188.349 267.093 188.97 266.741V262.857H186.245V263.747H187.793V266.277C187.626 266.315 187.45 266.324 187.274 266.324C184.845 266.324 184.215 264.637 184.215 263.052C184.215 261.143 185.281 260.216 186.681 260.216C187.617 260.216 188.34 260.54 188.747 260.883V259.91C188.395 259.632 187.617 259.308 186.514 259.308C184.502 259.308 182.927 260.652 182.927 263.117C182.918 264.998 183.789 267.186 186.968 267.186Z" fill="#D3D7DA" style="fill:#D3D7DA;fill:color(display-p3 0.8293 0.8422 0.8542);fill-opacity:1;"/>
<path d="M147.197 422.534H148.745V425.064C148.578 425.101 148.402 425.11 148.226 425.11C145.797 425.11 145.167 423.424 145.167 421.839C145.167 419.929 146.233 419.003 147.633 419.003C148.569 419.003 149.292 419.327 149.699 419.67V418.697C149.347 418.419 148.569 418.094 147.466 418.094C145.455 418.094 143.879 419.438 143.879 421.904C143.879 423.785 144.75 425.963 147.929 425.963C148.541 425.963 149.31 425.87 149.931 425.518V421.635H147.206V422.534H147.197Z" fill="#D3D7DA" style="fill:#D3D7DA;fill:color(display-p3 0.8293 0.8422 0.8542);fill-opacity:1;"/>
<path d="M241.494 415.416H243.042V417.946C242.875 417.983 242.699 417.992 242.523 417.992C240.094 417.992 239.464 416.305 239.464 414.721C239.464 412.811 240.53 411.884 241.929 411.884C242.866 411.884 243.589 412.209 243.996 412.552V411.579C243.644 411.3 242.866 410.976 241.763 410.976C239.751 410.976 238.176 412.32 238.176 414.785C238.176 416.667 239.047 418.845 242.226 418.845C242.838 418.845 243.607 418.752 244.228 418.4V414.517H241.503V415.416H241.494Z" fill="#D3D7DA" style="fill:#D3D7DA;fill:color(display-p3 0.8293 0.8422 0.8542);fill-opacity:1;"/>
<path d="M210.87 270.207H213.503L214.151 272.432H215.384L213.113 264.869H211.464L209.184 272.432H210.203L210.87 270.207ZM211.89 266.695C212.029 266.175 212.149 265.703 212.177 265.545C212.214 265.703 212.344 266.25 212.474 266.695L213.252 269.364H211.111L211.89 266.695Z" fill="#D3D7DA" style="fill:#D3D7DA;fill:color(display-p3 0.8293 0.8422 0.8542);fill-opacity:1;"/>
<path d="M199.795 400.836L197.515 408.399H198.534L199.192 406.175H201.834L202.482 408.399H203.715L201.444 400.836H199.795ZM199.442 405.332L200.221 402.662C200.369 402.143 200.481 401.671 200.508 401.513C200.545 401.671 200.675 402.217 200.805 402.662L201.583 405.332H199.442Z" fill="#D3D7DA" style="fill:#D3D7DA;fill:color(display-p3 0.8293 0.8422 0.8542);fill-opacity:1;"/>
<path d="M227.563 405.665L225.283 413.228H226.303L226.961 411.004H229.593L230.242 413.228H231.474L229.204 405.665H227.563ZM227.202 410.151L227.98 407.482C228.129 406.963 228.24 406.49 228.268 406.332C228.305 406.49 228.434 407.037 228.564 407.482L229.343 410.151H227.202Z" fill="#D3D7DA" style="fill:#D3D7DA;fill:color(display-p3 0.8293 0.8422 0.8542);fill-opacity:1;"/>
<path d="M253.227 418.27L250.947 425.833H251.967L252.625 423.609H255.257L255.906 425.833H257.139L254.868 418.27H253.227ZM252.875 422.756L253.654 420.087C253.793 419.568 253.913 419.095 253.941 418.937C253.978 419.095 254.108 419.642 254.238 420.087L255.016 422.756H252.875Z" fill="#D3D7DA" style="fill:#D3D7DA;fill:color(display-p3 0.8293 0.8422 0.8542);fill-opacity:1;"/>
<path d="M158.93 411.143L156.65 418.706H157.67L158.328 416.481H160.96L161.609 418.706H162.842L160.571 411.143H158.93ZM158.569 415.638L159.347 412.968C159.496 412.449 159.607 411.977 159.635 411.819C159.672 411.977 159.802 412.524 159.931 412.968L160.71 415.638H158.569Z" fill="#D3D7DA" style="fill:#D3D7DA;fill:color(display-p3 0.8293 0.8422 0.8542);fill-opacity:1;"/>
<path d="M259.381 290.301H262.013L262.662 292.526H263.895L261.624 284.963H259.974L257.694 292.526H258.714L259.381 290.301ZM260.401 286.789C260.549 286.27 260.66 285.797 260.688 285.639C260.725 285.797 260.855 286.344 260.985 286.789L261.763 289.458H259.622L260.401 286.789Z" fill="#D3D7DA" style="fill:#D3D7DA;fill:color(display-p3 0.8293 0.8422 0.8542);fill-opacity:1;"/>
<path d="M236.525 280.903H237.748V274.23H239.732V273.34H234.551V274.23H236.525V280.903Z" fill="#D3D7DA" style="fill:#D3D7DA;fill:color(display-p3 0.8293 0.8422 0.8542);fill-opacity:1;"/>
<path d="M183.891 402.986H185.874V409.66H187.097V402.986H189.072V402.097H183.891V402.986Z" fill="#D3D7DA" style="fill:#D3D7DA;fill:color(display-p3 0.8293 0.8422 0.8542);fill-opacity:1;"/>
<path d="M212.048 402.996H214.022V409.66H215.245V402.996H217.229V402.106H212.048V402.996Z" fill="#D3D7DA" style="fill:#D3D7DA;fill:color(display-p3 0.8293 0.8422 0.8542);fill-opacity:1;"/>
<path d="M282.367 307.124H283.581V300.46H285.565V299.57H280.384V300.46H282.367V307.124Z" fill="#D3D7DA" style="fill:#D3D7DA;fill:color(display-p3 0.8293 0.8422 0.8542);fill-opacity:1;"/>
<path d="M305.084 324.724C305.63 324.724 306.177 324.659 306.567 324.52V323.742C306.288 323.816 305.936 323.862 305.51 323.862C303.007 323.862 302.34 322.148 302.34 320.591C302.34 318.672 303.378 317.764 304.666 317.764C305.454 317.764 306.075 317.995 306.576 318.385V317.402C306.242 317.161 305.51 316.837 304.5 316.837C302.572 316.837 301.052 318.172 301.052 320.646C301.043 322.639 301.988 324.724 305.084 324.724Z" fill="#D3D7DA" style="fill:#D3D7DA;fill:color(display-p3 0.8293 0.8422 0.8542);fill-opacity:1;"/>
<path d="M323.194 344.929H324.417V338.256H326.401V337.366H321.22V338.256H323.194V344.929Z" fill="#D3D7DA" style="fill:#D3D7DA;fill:color(display-p3 0.8293 0.8422 0.8542);fill-opacity:1;"/>
<path d="M349.507 395.878C349.331 395.591 349.127 395.35 348.896 395.127C335.243 372.67 319.348 351.399 300.487 332.816C290.94 323.427 280.634 314.752 269.558 307.124C258.492 299.496 246.637 292.934 234.181 287.753C221.705 282.599 208.693 278.864 195.467 276.427C182.241 273.989 168.82 272.831 155.427 272.729C128.632 272.534 102.013 276.427 76.173 282.794C73.9393 283.35 72.5676 285.602 73.1237 287.845C73.6706 290.079 75.932 291.451 78.175 290.895H78.1843C96.6376 286.344 115.443 283.109 134.332 281.765L136.816 289.634C137.002 290.227 137.548 290.607 138.142 290.607C138.281 290.607 138.42 290.589 138.559 290.543C139.291 290.311 139.699 289.532 139.467 288.8L137.187 281.571C143.239 281.2 149.31 281.024 155.371 281.07C156.817 281.079 158.254 281.107 159.7 281.144L160.553 287.595C160.645 288.29 161.238 288.8 161.933 288.8C161.998 288.8 162.054 288.8 162.119 288.791C162.879 288.689 163.416 287.994 163.314 287.234L162.527 281.237C169.71 281.506 176.874 282.09 183.992 283.044L183.733 288.976C183.696 289.745 184.298 290.394 185.058 290.422C185.077 290.422 185.095 290.422 185.123 290.422C185.864 290.422 186.476 289.838 186.513 289.097L186.764 283.443C193.696 284.472 200.573 285.834 207.349 287.586L206.199 292.776C206.033 293.527 206.505 294.268 207.256 294.435C207.358 294.454 207.46 294.472 207.562 294.472C208.201 294.472 208.776 294.027 208.915 293.379L210.036 288.309C216.719 290.144 223.3 292.341 229.723 294.936L227.776 299.626C227.48 300.339 227.823 301.146 228.527 301.442C228.703 301.516 228.879 301.544 229.055 301.544C229.602 301.544 230.121 301.22 230.344 300.682L232.29 295.992C238.676 298.699 244.876 301.794 250.901 305.224L248.111 309.608C247.694 310.256 247.889 311.118 248.537 311.526C248.769 311.674 249.029 311.749 249.279 311.749C249.742 311.749 250.187 311.517 250.456 311.109L253.311 306.623C259.335 310.173 265.165 314.075 270.8 318.255L266.982 322.426C266.462 322.991 266.5 323.872 267.065 324.391C267.334 324.632 267.667 324.752 268.001 324.752C268.381 324.752 268.752 324.604 269.03 324.298L273.043 319.923C278.743 324.279 284.23 328.932 289.504 333.817L284.712 337.496C284.1 337.96 283.989 338.84 284.452 339.443C284.73 339.795 285.138 339.989 285.555 339.989C285.852 339.989 286.149 339.897 286.399 339.702L291.561 335.744C292.609 336.736 293.647 337.737 294.675 338.747C298.995 343.002 303.156 347.423 307.179 351.964L300.459 355.468C299.773 355.82 299.514 356.663 299.866 357.34C300.116 357.813 300.598 358.091 301.098 358.091C301.312 358.091 301.534 358.044 301.738 357.933L309.06 354.124C320.571 367.396 330.878 381.771 340.155 396.758L290.514 427.409C289.485 428.048 289.105 429.392 289.689 430.477C290.292 431.608 291.7 432.025 292.831 431.422L347.969 401.726C347.978 401.717 347.987 401.717 347.997 401.708C348.015 401.698 348.024 401.698 348.043 401.689C348.052 401.68 348.061 401.671 348.071 401.671C348.108 401.652 348.145 401.624 348.182 401.606C350.119 400.41 350.721 397.833 349.507 395.878Z" fill="#D3D7DA" style="fill:#D3D7DA;fill:color(display-p3 0.8293 0.8422 0.8542);fill-opacity:1;"/>
<path d="M200.453 528.425C226.047 528.425 246.795 507.677 246.795 482.083C246.795 456.489 226.047 435.741 200.453 435.741C174.859 435.741 154.111 456.489 154.111 482.083C154.111 507.677 174.859 528.425 200.453 528.425Z" fill="#FFC700" style="fill:#FFC700;fill:color(display-p3 1.0000 0.7804 0.0000);fill-opacity:1;"/>
<path d="M182.111 448.04C178.357 447.605 174.613 447.095 170.877 446.576C167.133 446.075 163.398 445.491 159.653 444.945L148.448 443.174C145.074 442.609 141.7 442.025 138.327 441.395L111.328 425.805C109.335 424.656 106.786 425.333 105.628 427.335C104.469 429.337 105.155 431.876 107.157 433.035L133.174 448.059C133.201 448.235 133.22 448.411 133.266 448.596L142.924 482.5C143.193 483.436 144.11 484.048 145.093 483.89C146.159 483.724 146.891 482.732 146.724 481.666L141.839 449.634C143.814 449.699 145.779 449.764 147.753 449.838L159.088 450.376C162.86 450.608 166.632 450.793 170.405 451.062C174.177 451.312 177.94 451.581 181.703 451.905C182.75 451.998 183.686 451.238 183.807 450.191C183.946 449.134 183.177 448.17 182.111 448.04Z" fill="#FEFEFE" style="fill:#FEFEFE;fill:color(display-p3 0.9961 0.9961 0.9961);fill-opacity:1;"/>
<path d="M295.259 427.344C294.109 425.351 291.551 424.665 289.559 425.815L262.634 441.358L218.776 448.04C217.803 448.188 217.07 449.06 217.126 450.07C217.182 451.145 218.099 451.97 219.174 451.914L259.028 449.801L254.144 481.675C253.996 482.63 254.58 483.575 255.534 483.844C256.572 484.141 257.647 483.538 257.944 482.5L267.676 448.253C267.694 448.188 267.704 448.114 267.722 448.049L293.72 433.044C295.722 431.885 296.408 429.337 295.259 427.344Z" fill="#FEFEFE" style="fill:#FEFEFE;fill:color(display-p3 0.9961 0.9961 0.9961);fill-opacity:1;"/>
</svg>